<?xml version="1.0" encoding="utf-8"?>
<!-- Generator: Adobe Illustrator 21.0.0, SVG Export Plug-In . SVG Version: 6.00 Build 0)  -->
<svg version="1.1" id="Layer_2" xmlns="http://www.w3.org/2000/svg" xmlns:xlink="http://www.w3.org/1999/xlink" x="0px" y="0px"
	 viewBox="0 0 100 100" style="enable-background:new 0 0 100 100;" xml:space="preserve">
<style type="text/css">
	.st0{fill:#AA00FF;}
</style>
<path class="st0" d="M40.8,4.2C43.4,1.5,46.9,0,50.7,0c3.7,0,7.2,1.5,9.8,4.2s4.1,6.3,4.1,10.2c0,3.8-1.5,7.5-4.1,10.2
	s-6.1,4.2-9.8,4.2s-7.2-1.5-9.8-4.2s-4.1-6.3-4.1-10.2C36.7,10.5,38.2,6.9,40.8,4.2L40.8,4.2z M47.8,17.4c0.8,0.8,1.8,1.2,2.9,1.2
	c1.1,0,2.1-0.4,2.9-1.2c0.8-0.8,1.2-1.9,1.2-3s-0.4-2.2-1.2-3s-1.8-1.2-2.9-1.2c-1.1,0-2.1,0.4-2.9,1.2c-0.8,0.8-1.2,1.9-1.2,3
	S47,16.6,47.8,17.4L47.8,17.4z M70,24.6c1.9-2.8,5.7-3.5,8.4-1.5c2.7,2,3.4,5.9,1.4,8.7c-3.5,5.1-7.7,9.1-12.4,11.8
	c-2.7,1.8-5.7,3.5-8.9,5.3c-2.8,1.6-5.7,3.2-8.3,4.9c-6.3,4.1-9.9,7.8-11.3,11.7c-1.9,5.3-1,9.7,0,12.4c1.4,3.7,4,6.6,7.2,8.4
	c3.3,1.7,7.8,1.6,11.8-0.2c3.7-1.7,6.2-4.6,6.5-7.6s-1-4.6-2.2-5.2c-1.5-0.7-3.2,0-4.6,1.9c-2.1,2.7-5.9,3.2-8.5,1
	c-2.6-2.1-3.1-6.1-1-8.8c4.9-6.5,12.4-8.7,19.1-5.6c6.4,3,10.1,10,9.3,17.8c-0.7,7.5-5.8,14.1-13.6,17.7c-7.4,3.4-15.7,3.4-22.3,0
	c-5.9-3.1-10.5-8.4-13-14.9C25,75.6,25,68,27.5,61c2.5-6.6,7.6-11.5,12.3-15c-1.1-0.4-2.2-0.9-3.3-1.4c-5.6-2.7-10.4-6.9-14.4-12.8
	c-1.9-2.8-1.3-6.7,1.4-8.7s6.5-1.3,8.4,1.5c2.8,4.1,5.9,6.9,9.6,8.6c2.8,1.3,5.9,2,9.5,2.1c3.6-0.1,6.7-0.8,9.5-2.1
	c0.3-0.1,0.5-0.3,0.8-0.4c0.3-0.2,0.6-0.3,0.8-0.5C65.1,30.6,67.7,28.1,70,24.6L70,24.6z"/>
</svg>
