<?xml version="1.0" encoding="utf-8"?>
<!-- Generator: Adobe Illustrator 21.0.0, SVG Export Plug-In . SVG Version: 6.00 Build 0)  -->
<svg version="1.1" id="arrow_right" xmlns="http://www.w3.org/2000/svg" xmlns:xlink="http://www.w3.org/1999/xlink" x="0px"
	 y="0px" viewBox="0 0 100 100" style="enable-background:new 0 0 100 100;" xml:space="preserve">
<style type="text/css">
	.st0{opacity:0.7;fill:#11AAAA;enable-background:new    ;}
	.st1{fill:#11AAAA;}
	.st2{opacity:0.6;fill:#11AAAA;enable-background:new    ;}
</style>
<path class="st0" d="M34.3,32.5c5-0.5,10.3-0.8,15.7-0.8s10.7,0.3,15.7,0.8C63.5,14.6,57.9,1.5,51.3,0c-0.4,0-0.8,0-1.3,0
	s-0.8,0-1.3,0C42.1,1.5,36.5,14.6,34.3,32.5z"/>
<path class="st1" d="M32.7,65.6c-0.5-5-0.8-10.3-0.8-15.7s0.3-10.7,0.8-15.7C13.6,36.6,0.1,42.7,0,49.8v0.1
	C0,57.1,13.6,63.2,32.7,65.6z"/>
<path class="st0" d="M65.8,34c-5-0.6-10.3-0.9-15.8-0.9S39.1,33.4,34.2,34c-0.6,5-0.9,10.3-0.9,15.8s0.3,10.9,0.9,15.8
	c5,0.6,10.3,0.9,15.8,0.9s10.9-0.3,15.8-0.9c0.6-5,0.9-10.3,0.9-15.8S66.4,39,65.8,34z"/>
<path class="st0" d="M65.7,67.2C60.7,67.8,55.4,68,50,68s-10.7-0.3-15.7-0.8c2.4,19.1,8.5,32.7,15.7,32.7
	C57.2,99.9,63.3,86.3,65.7,67.2z"/>
<path class="st2" d="M100,49.9C100,49.9,100,49.8,100,49.9c-0.1-7.3-13.6-13.4-32.7-15.7c0.5,5,0.8,10.3,0.8,15.7
	s-0.3,10.7-0.8,15.7C86.4,63.2,100,57.1,100,49.9z"/>
<path class="st2" d="M85.8,63.1c-5.4,1.8-11.7,3.1-18.7,4c-0.8,6.9-2.2,13.3-4,18.7c-2.3,7-5.3,11.8-8.6,14.1
	c23.9-2.2,43-21.2,45.2-45.1C97.4,57.9,92.7,60.8,85.8,63.1z"/>
<path class="st1" d="M36.8,85.7C35,80.3,33.7,74,32.8,67c-6.9-0.8-13.3-2.2-18.7-4c-6.9-2.3-11.6-5.2-14-8.4
	c2.2,23.9,21.3,43,45.2,45.1C42.1,97.5,39.1,92.7,36.8,85.7z"/>
<path class="st1" d="M14.2,36.7c5.4-1.8,11.7-3.1,18.7-4c0.8-6.9,2.2-13.3,4-18.7c2.2-6.7,5-11.4,8.1-13.8
	C21.4,2.6,2.6,21.4,0.2,45.1C2.6,41.9,7.3,39,14.2,36.7z"/>
<path class="st2" d="M63.2,14.1c1.8,5.4,3.1,11.7,4,18.7c6.9,0.8,13.3,2.2,18.7,4c6.8,2.3,11.6,5.2,13.9,8.4
	C97.4,21.4,78.6,2.6,55,0.2C58.1,2.6,60.9,7.3,63.2,14.1z"/>
</svg>
