<?xml version="1.0" encoding="utf-8"?>
<!-- Generator: Adobe Illustrator 21.0.0, SVG Export Plug-In . SVG Version: 6.00 Build 0)  -->
<svg version="1.1" id="Layer_3" xmlns="http://www.w3.org/2000/svg" xmlns:xlink="http://www.w3.org/1999/xlink" x="0px" y="0px"
	 viewBox="0 0 100 100" style="enable-background:new 0 0 100 100;" xml:space="preserve">
<style type="text/css">
	.st0{opacity:0.2;fill-rule:evenodd;clip-rule:evenodd;}
	.st1{fill-rule:evenodd;clip-rule:evenodd;fill:#FFBB00;}
	.st2{fill:#FFFFFF;}
</style>
<path class="st0" d="M91.2,3.6c1.9,1.9-14.5,23-38.7,47.2C28.3,75,5.5,93.1,3.6,91.2c-1.9-1.9,12.9-26.4,37.1-50.6
	C64.9,16.5,89.3,1.7,91.2,3.6z"/>
<path class="st1" d="M3.4,50v43.1L93.1,3.4H50L3.4,50z"/>
<g>
	<path class="st2" d="M10.6,57.5l8.5,8.5l1-1l-2.7-2.7l2.2-2.2c2.1-2.1,2.2-4.4,0.4-6.3c-1.8-1.8-4.1-1.6-6.2,0.5L10.6,57.5z
		 M12.5,57.4l2.2-2.2c1.5-1.5,3.1-1.8,4.4-0.5c1.3,1.3,1.1,2.9-0.4,4.4l-2.2,2.2L12.5,57.4z"/>
	<path class="st2" d="M34,51.1l1.1-1.1l-4.9-0.9c0.8-1.6,0.6-3.3-0.9-4.7c-1.8-1.8-4.1-1.6-6.2,0.5l-3.2,3.2l8.5,8.5l1-1L26.7,53
		l2.3-2.3c0.2-0.2,0.4-0.4,0.5-0.6L34,51.1z M25.8,52l-4-4l2.3-2.3c1.5-1.5,3.1-1.8,4.4-0.5c1.3,1.3,1.1,2.9-0.4,4.4L25.8,52z"/>
	<path class="st2" d="M32.9,35.1c-2.5,2.5-2.6,6.4-0.2,8.8c2.4,2.4,6.3,2.3,8.8-0.2c2.5-2.5,2.5-6.4,0.1-8.8S35.4,32.6,32.9,35.1z
		 M33.9,36c1.9-1.9,4.9-2,6.8-0.1c1.9,1.9,1.8,4.9-0.1,6.8s-5,2-6.9,0.1C31.9,41,32,37.9,33.9,36z"/>
	<path class="st2" d="M57.2,28l-8.5-8.5l-1.2,1.2l3,9.3l-9.3-3L40,28.1l8.5,8.5l0.9-0.9l-7-7l9.2,3l0.6-0.6l-3-9.2l7,7L57.2,28z"/>
	<path class="st2" d="M55.7,12.3c-2.5,2.5-2.6,6.4-0.2,8.8c2.4,2.4,6.3,2.3,8.8-0.2c2.5-2.5,2.5-6.4,0.1-8.8
		C62.1,9.7,58.2,9.8,55.7,12.3z M56.6,13.2c1.9-1.9,4.9-2,6.8-0.1c1.9,1.9,1.8,4.9-0.1,6.8c-1.9,1.9-5,2-6.9,0.1
		C54.6,18.2,54.7,15.1,56.6,13.2z"/>
</g>
<path class="st0" d="M41.4,8.6h50L100,0H50L41.4,8.6z"/>
<path class="st0" d="M8.6,41.4v50L0,100V50L8.6,41.4z"/>
</svg>
